<svg width="30" height="30" viewBox="0 0 30 30" fill="none" xmlns="http://www.w3.org/2000/svg">
<path d="M19.6336 26.6163C19.3992 26.8506 19.0813 26.9823 18.7498 26.9823C18.4184 26.9823 18.1005 26.8506 17.8661 26.6163L15.8836 24.6338C15.6492 24.3994 15.5176 24.0815 15.5176 23.7501C15.5176 23.4186 15.6492 23.1007 15.8836 22.8663L22.8661 15.8838C23.1005 15.6495 23.4184 15.5178 23.7498 15.5178C24.0813 15.5178 24.3992 15.6495 24.6336 15.8838L26.6161 17.8663C26.8504 18.1007 26.982 18.4186 26.982 18.7501C26.982 19.0815 26.8504 19.3994 26.6161 19.6338L19.6336 26.6163Z" stroke="#F7604E" stroke-width="3" stroke-linecap="round" stroke-linejoin="round"/>
<path d="M22.5 16.25L20.7813 7.65751C20.7345 7.42373 20.6219 7.2082 20.4567 7.03633C20.2914 6.86447 20.0805 6.74343 19.8488 6.68751L4.04376 2.53501C3.83554 2.48467 3.61788 2.48868 3.41166 2.54666C3.20545 2.60464 3.01759 2.71464 2.86612 2.86612C2.71464 3.01759 2.60464 3.20545 2.54666 3.41166C2.48868 3.61788 2.48467 3.83554 2.53501 4.04376L6.68751 19.8488C6.74343 20.0805 6.86447 20.2914 7.03633 20.4567C7.2082 20.6219 7.42373 20.7345 7.65751 20.7813L16.25 22.5" stroke="#F7604E" stroke-width="3" stroke-linecap="round" stroke-linejoin="round"/>
<path d="M2.875 2.875L11.9825 11.9825" stroke="#F7604E" stroke-width="3" stroke-linecap="round" stroke-linejoin="round"/>
<path d="M13.75 16.25C15.1307 16.25 16.25 15.1307 16.25 13.75C16.25 12.3693 15.1307 11.25 13.75 11.25C12.3693 11.25 11.25 12.3693 11.25 13.75C11.25 15.1307 12.3693 16.25 13.75 16.25Z" stroke="#F7604E" stroke-width="3" stroke-linecap="round" stroke-linejoin="round"/>
</svg>
