<svg width="30" height="30" viewBox="0 0 30 30" fill="none" xmlns="http://www.w3.org/2000/svg">
<path d="M23.8373 6.1625C21.8909 4.21402 19.3555 2.96289 16.625 2.60349C13.8944 2.24409 11.1216 2.79653 8.7373 4.175" stroke="#F7604E" stroke-width="3" stroke-linecap="round" stroke-linejoin="round"/>
<path d="M5 7.5H5.01364" stroke="#F7604E" stroke-width="3" stroke-linecap="round" stroke-linejoin="round"/>
<path d="M2.86245 12.025C2.39382 13.9338 2.38192 15.9263 2.82773 17.8405C3.27354 19.7548 4.16449 21.537 5.42824 23.0424C6.692 24.5478 8.29293 25.7339 10.1011 26.5045C11.9092 27.2752 13.8736 27.6085 15.8347 27.4776C17.7959 27.3466 19.6985 26.755 21.3882 25.7509C23.0778 24.7467 24.5068 23.3582 25.5592 21.6982C26.6116 20.0382 27.2577 18.1534 27.445 16.1968C27.6324 14.2402 27.3557 12.2671 26.6375 10.4375" stroke="#F7604E" stroke-width="3" stroke-linecap="round" stroke-linejoin="round"/>
<path d="M20.3001 9.6999C19.5807 8.97636 18.7213 8.40719 17.7744 8.02724C16.8275 7.64729 15.813 7.46453 14.7931 7.49016C13.7731 7.51579 12.7691 7.74926 11.8424 8.17628C10.9158 8.60331 10.0861 9.21491 9.40394 9.97367C8.72182 10.7324 8.20169 11.6224 7.87538 12.5891C7.54906 13.5558 7.42342 14.5789 7.50614 15.5958C7.58885 16.6128 7.8782 17.6021 8.35645 18.5034C8.83471 19.4047 9.49183 20.1989 10.2876 20.8374" stroke="#F7604E" stroke-width="3" stroke-linecap="round" stroke-linejoin="round"/>
<path d="M15 22.5H15.0136" stroke="#F7604E" stroke-width="3" stroke-linecap="round" stroke-linejoin="round"/>
<path d="M22.4874 14.575C22.5554 15.7642 22.3392 16.9525 21.8566 18.0415C21.374 19.1305 20.639 20.089 19.7124 20.8375" stroke="#F7604E" stroke-width="3" stroke-linecap="round" stroke-linejoin="round"/>
<path d="M15 17.5C16.3807 17.5 17.5 16.3807 17.5 15C17.5 13.6193 16.3807 12.5 15 12.5C13.6193 12.5 12.5 13.6193 12.5 15C12.5 16.3807 13.6193 17.5 15 17.5Z" stroke="#F7604E" stroke-width="3" stroke-linecap="round" stroke-linejoin="round"/>
<path d="M16.7627 13.2376L23.8377 6.1626" stroke="#F7604E" stroke-width="3" stroke-linecap="round" stroke-linejoin="round"/>
</svg>
