<svg width="36" height="36" viewBox="0 0 36 36" fill="none" xmlns="http://www.w3.org/2000/svg">
<path d="M17.9993 18.0002H18.0143M23.3026 23.3035C16.2731 30.333 8.20028 33.6571 5.27135 30.7281C2.34242 27.7992 5.66653 19.7263 12.696 12.6969C19.7254 5.66748 27.7983 2.34336 30.7272 5.27229C33.6561 8.20122 30.332 16.2741 23.3026 23.3035ZM23.3025 12.6966C30.3319 19.7261 33.6561 27.7989 30.7271 30.7279C27.7982 33.6568 19.7253 30.3327 12.6959 23.3032C5.66647 16.2738 2.34236 8.20095 5.27129 5.27202C8.20022 2.34309 16.2731 5.66721 23.3025 12.6966ZM18.7493 18.0002C18.7493 18.4144 18.4135 18.7502 17.9993 18.7502C17.5851 18.7502 17.2493 18.4144 17.2493 18.0002C17.2493 17.586 17.5851 17.2502 17.9993 17.2502C18.4135 17.2502 18.7493 17.586 18.7493 18.0002Z" stroke="#F7604E" stroke-width="3" stroke-linecap="round" stroke-linejoin="round"/>
</svg>
