<svg width="30" height="30" viewBox="0 0 30 30" fill="none" xmlns="http://www.w3.org/2000/svg">
<path d="M14.4061 2.86886C14.4608 2.75819 14.5455 2.66503 14.6504 2.59989C14.7553 2.53476 14.8763 2.50024 14.9998 2.50024C15.1233 2.50024 15.2443 2.53476 15.3492 2.59989C15.4542 2.66503 15.5388 2.75819 15.5936 2.86886L18.4811 8.71761C18.6713 9.10257 18.9521 9.43562 19.2993 9.68818C19.6466 9.94073 20.05 10.1053 20.4748 10.1676L26.9323 11.1126C27.0547 11.1303 27.1696 11.182 27.2642 11.2616C27.3587 11.3413 27.4291 11.4458 27.4673 11.5634C27.5056 11.6809 27.5101 11.8069 27.4805 11.9269C27.4509 12.0469 27.3883 12.1563 27.2998 12.2426L22.6298 16.7901C22.3218 17.0902 22.0914 17.4607 21.9584 17.8696C21.8253 18.2786 21.7936 18.7137 21.8661 19.1376L22.9686 25.5626C22.9902 25.6849 22.9769 25.8108 22.9304 25.926C22.8839 26.0411 22.806 26.1409 22.7055 26.2139C22.605 26.2868 22.486 26.3301 22.3621 26.3387C22.2382 26.3474 22.1144 26.321 22.0048 26.2626L16.2323 23.2276C15.852 23.0279 15.4288 22.9235 14.9992 22.9235C14.5696 22.9235 14.1464 23.0279 13.7661 23.2276L7.99481 26.2626C7.88522 26.3206 7.76155 26.3467 7.63787 26.3379C7.51419 26.3291 7.39546 26.2858 7.29518 26.2129C7.1949 26.14 7.1171 26.0403 7.07063 25.9254C7.02416 25.8104 7.01088 25.6847 7.03231 25.5626L8.13356 19.1389C8.2063 18.7148 8.17479 18.2794 8.04173 17.8702C7.90867 17.461 7.67807 17.0903 7.36981 16.7901L2.69981 12.2439C2.61055 12.1577 2.5473 12.0481 2.51726 11.9277C2.48722 11.8073 2.4916 11.6809 2.52991 11.5628C2.56821 11.4448 2.63889 11.3399 2.7339 11.2601C2.82892 11.1803 2.94444 11.1287 3.06731 11.1114L9.52356 10.1676C9.94888 10.1057 10.3528 9.94143 10.7005 9.68885C11.0483 9.43626 11.3294 9.10295 11.5198 8.71761L14.4061 2.86886Z" stroke="#F7604E" stroke-width="3" stroke-linecap="round" stroke-linejoin="round"/>
</svg>
